<?xml version="1.0" standalone="no"?>
<!DOCTYPE svg PUBLIC "-//W3C//DTD SVG 20010904//EN"
 "http://www.w3.org/TR/2001/REC-SVG-20010904/DTD/svg10.dtd">
<svg version="1.0" xmlns="http://www.w3.org/2000/svg"
 width="700.000000pt" height="700.000000pt" viewBox="0 0 700.000000 700.000000"
 preserveAspectRatio="xMidYMid meet">
<metadata>
Created by potrace 1.14, written by Peter Selinger 2001-2017
</metadata>
<g transform="translate(0.000000,700.000000) scale(0.100000,-0.100000)"
fill="#000000" stroke="none">
<path d="M2367 6985 c-319 -64 -573 -303 -658 -621 -30 -111 -30 -297 0 -409
101 -381 427 -635 816 -635 388 0 715 254 816 635 30 112 30 298 0 409 -29
108 -88 228 -157 315 -189 242 -518 365 -817 306z"/>
<path d="M4748 6990 c-432 -79 -731 -452 -705 -880 19 -299 180 -550 444 -692
139 -75 218 -93 403 -93 149 1 159 2 250 33 352 121 580 435 580 798 0 239
-91 449 -266 614 -113 106 -218 165 -370 205 -69 19 -268 28 -336 15z"/>
<path d="M727 5309 c-200 -27 -404 -141 -534 -298 -30 -37 -77 -112 -104 -167
-118 -240 -118 -499 0 -738 111 -226 304 -382 551 -447 115 -30 290 -30 405 0
380 101 635 428 635 816 0 331 -182 618 -481 760 -140 66 -323 95 -472 74z"/>
<path d="M3525 4708 c-218 -14 -455 -97 -651 -228 -101 -67 -286 -252 -352
-351 -138 -207 -216 -428 -230 -657 -4 -59 -5 -606 -2 -1217 6 -1215 3 -1144
66 -1334 109 -328 353 -611 660 -768 214 -109 374 -148 614 -147 184 0 281 15
433 66 390 130 709 446 842 833 64 186 68 221 72 687 l5 426 426 5 c392 4 435
6 524 26 535 119 938 530 1045 1068 27 137 24 387 -6 522 -29 134 -61 222
-124 345 -199 390 -581 659 -1013 715 -101 13 -2122 21 -2309 9z"/>
<path d="M708 2950 c-432 -79 -731 -453 -705 -880 14 -223 86 -379 252 -546
89 -90 111 -106 205 -152 155 -75 206 -87 390 -87 149 1 159 2 250 33 261 90
452 281 542 542 31 91 32 101 33 250 0 183 -18 261 -92 402 -111 211 -300 359
-539 423 -69 19 -268 28 -336 15z"/>
</g>
</svg>
